PathFileType	4	(X/Y/Z)	 2.8Hzlow_3min.trc
DataRate	CameraRate	NumFrames	NumMarkers	Units	OrigDataRate	OrigDataStartFrame	OrigNumFrames
200	200	8	43	m	200	1	1000
Frame#	Time	C7			LSH			RSH			MAN			RASI			LASI			HIPR			HIPL			RPSI			LPSI			COX			RTHI1			RTHI2			RTHI3			RTHI4			RLKN			RMKN			RSHA1			RSHA2			RSHA3			RSHA4			RLMAL			RMMAL			RHEEL			RMET5			RMET1			RTOE			LTHI1			LTHI2			LTHI3			LTHI4			LLKN			LMKN			LSHA1			LSHA2			LSHA3			LSHA4			LLMAL			LMMAL			LHEEL			LMET5			LMET1			LTOE			
		X1	Y1	Z1	X2	Y2	Z2	X3	Y3	Z3	X4	Y4	Z4	X5	Y5	Z5	X6	Y6	Z6	X7	Y7	Z7	X8	Y8	Z8	X9	Y9	Z9	X10	Y10	Z10	X11	Y11	Z11	X12	Y12	Z12	X13	Y13	Z13	X14	Y14	Z14	X15	Y15	Z15	X16	Y16	Z16	X17	Y17	Z17	X18	Y18	Z18	X19	Y19	Z19	X20	Y20	Z20	X21	Y21	Z21	X22	Y22	Z22	X23	Y23	Z23	X24	Y24	Z24	X25	Y25	Z25	X26	Y26	Z26	X27	Y27	Z27	X28	Y28	Z28	X29	Y29	Z29	X30	Y30	Z30	X31	Y31	Z31	X32	Y32	Z32	X33	Y33	Z33	X34	Y34	Z34	X35	Y35	Z35	X36	Y36	Z36	X37	Y37	Z37	X38	Y38	Z38	X39	Y39	Z39	X40	Y40	Z40	X41	Y41	Z41	X42	Y42	Z42	X43	Y43	Z43	
1	0.0050	-0.268451	1.528732	-0.573239	-0.187791	1.502289	-0.766943	-0.180570	1.504582	-0.370101	-0.122766	1.465462	-0.568660	-0.101001	1.028556	-0.441819	-0.097850	1.034365	-0.689029	-0.181668	1.081784	-0.402327	-0.181000	1.078099	-0.724076	-0.280134	1.067750	-0.512879	-0.279515	1.065326	-0.606982	-0.283897	1.065255	-0.561836	-0.184584	0.778853	-0.375873	-0.173075	0.719400	-0.377573	-0.108838	0.727898	-0.374909	-0.111810	0.789385	-0.372640	-0.158846	0.502382	-0.395231	-0.151859	0.482760	-0.515042	-0.237668	0.328353	-0.378484	-0.258443	0.292859	-0.384188	-0.188564	0.305653	-0.386732	-0.202018	0.268608	-0.396254	-0.306163	0.125307	-0.406417	-0.271401	0.127258	-0.487391	-0.359398	0.120369	-0.456626	-0.219483	0.039475	-0.377737	-0.166208	0.045395	-0.441041	-0.141423	0.036512	-0.442942	-0.182096	0.782515	-0.751355	-0.168584	0.722359	-0.753387	-0.104600	0.730804	-0.760580	-0.110480	0.790499	-0.760144	-0.134257	0.522618	-0.748313	-0.122524	0.507181	-0.631003	-0.250368	0.313207	-0.757891	-0.266086	0.276638	-0.752097	-0.208931	0.255665	-0.750902	-0.199418	0.295969	-0.761782	-0.298286	0.139781	-0.749441	-0.272726	0.139833	-0.667314	-0.355813	0.130576	-0.695297	-0.214735	0.042088	-0.768258	-0.169010	0.044708	-0.699104	-0.145900	0.035296	-0.708382	
2	0.0100	-0.268321	1.524480	-0.573076	-0.187502	1.498012	-0.766892	-0.180126	1.500111	-0.369970	-0.122580	1.460887	-0.568573	-0.101740	1.024397	-0.441723	-0.098199	1.030267	-0.689012	-0.182211	1.077402	-0.402369	-0.181687	1.073706	-0.724099	-0.280901	1.063065	-0.512970	-0.280248	1.060578	-0.606958	-0.284951	1.060738	-0.562006	-0.184426	0.774440	-0.375575	-0.172798	0.715056	-0.377375	-0.108670	0.723783	-0.375005	-0.111788	0.785230	-0.372781	-0.157846	0.498189	-0.395017	-0.151020	0.478382	-0.514613	-0.238200	0.324776	-0.378365	-0.259333	0.289466	-0.383957	-0.189535	0.301618	-0.386563	-0.203034	0.264651	-0.396124	-0.308581	0.122724	-0.406160	-0.273953	0.124509	-0.487267	-0.362015	0.117249	-0.456015	-0.220958	0.037968	-0.376341	-0.167658	0.045300	-0.440555	-0.142327	0.035860	-0.441476	-0.181858	0.777966	-0.751787	-0.168147	0.717900	-0.753650	-0.104093	0.726458	-0.760444	-0.110259	0.786190	-0.760059	-0.132890	0.518291	-0.748025	-0.121711	0.502862	-0.630670	-0.249445	0.309079	-0.758370	-0.265348	0.272605	-0.752573	-0.208223	0.251424	-0.750985	-0.198512	0.291661	-0.761814	-0.299129	0.136337	-0.749583	-0.273793	0.136367	-0.667271	-0.356833	0.127141	-0.695594	-0.215330	0.039171	-0.769162	-0.168570	0.043255	-0.697903	-0.145305	0.034637	-0.706215	
3	0.0150	-0.268265	1.520050	-0.572889	-0.187217	1.493543	-0.766878	-0.179674	1.495483	-0.369806	-0.122373	1.456089	-0.568495	-0.102441	1.019958	-0.441604	-0.098536	1.025899	-0.689014	-0.182762	1.072803	-0.402427	-0.182297	1.069122	-0.724179	-0.281672	1.058212	-0.513124	-0.280908	1.055628	-0.606928	-0.285582	1.055742	-0.562093	-0.184367	0.769785	-0.375267	-0.172463	0.710486	-0.377138	-0.108445	0.719588	-0.374972	-0.111816	0.780973	-0.372843	-0.156699	0.493813	-0.394806	-0.149919	0.473844	-0.514182	-0.238964	0.320979	-0.378415	-0.260260	0.286017	-0.383875	-0.190487	0.297583	-0.386341	-0.204062	0.260751	-0.395942	-0.310720	0.120082	-0.405927	-0.276590	0.121717	-0.487161	-0.364573	0.114228	-0.455251	-0.222173	0.036863	-0.375241	-0.168895	0.045154	-0.440445	-0.143275	0.035554	-0.441017	-0.181697	0.773152	-0.752131	-0.167779	0.713139	-0.753835	-0.103695	0.721895	-0.760418	-0.110104	0.781608	-0.760138	-0.131430	0.513706	-0.747747	-0.120867	0.498315	-0.630373	-0.248828	0.304886	-0.758950	-0.264951	0.268602	-0.753136	-0.207979	0.247099	-0.750899	-0.197926	0.287209	-0.761806	-0.300655	0.133088	-0.749676	-0.275591	0.133116	-0.667157	-0.358701	0.123404	-0.696021	-0.215805	0.037244	-0.770539	-0.168274	0.042660	-0.697853	-0.144799	0.034293	-0.705308	
4	0.0200	-0.268218	1.515587	-0.572688	-0.186909	1.489036	-0.766858	-0.179216	1.490809	-0.369634	-0.122150	1.451257	-0.568417	-0.103126	1.015464	-0.441489	-0.098875	1.021438	-0.689016	-0.183349	1.068141	-0.402466	-0.182896	1.064475	-0.724279	-0.282444	1.053330	-0.513291	-0.281576	1.050648	-0.606921	-0.286253	1.050739	-0.562201	-0.184316	0.765104	-0.374967	-0.172125	0.705879	-0.376891	-0.108203	0.715367	-0.374907	-0.111851	0.776679	-0.372860	-0.155534	0.489412	-0.394629	-0.148792	0.469296	-0.513761	-0.239523	0.317273	-0.378348	-0.261113	0.282557	-0.383774	-0.191342	0.293558	-0.386129	-0.205030	0.256853	-0.395756	-0.312787	0.117417	-0.405725	-0.279114	0.118905	-0.487092	-0.367040	0.111127	-0.454577	-0.223291	0.035794	-0.374175	-0.170033	0.045020	-0.440339	-0.144116	0.035251	-0.440562	-0.181558	0.768263	-0.752489	-0.167426	0.708313	-0.754039	-0.103320	0.717265	-0.760438	-0.109980	0.776964	-0.760266	-0.129933	0.509077	-0.747473	-0.119978	0.493715	-0.630101	-0.248276	0.300749	-0.759478	-0.264666	0.264655	-0.753670	-0.207853	0.242790	-0.750811	-0.197436	0.282759	-0.761760	-0.302227	0.129956	-0.749796	-0.277439	0.129932	-0.667072	-0.360583	0.119862	-0.696512	-0.216370	0.035381	-0.771865	-0.168162	0.042077	-0.697789	-0.144482	0.033956	-0.704499	
5	0.0250	-0.268205	1.511008	-0.572449	-0.186579	1.484396	-0.766854	-0.178754	1.486009	-0.369435	-0.121893	1.446285	-0.568343	-0.103779	1.010775	-0.441369	-0.099169	1.016765	-0.689051	-0.183998	1.063299	-0.402485	-0.183447	1.059654	-0.724430	-0.283225	1.048341	-0.513505	-0.282222	1.045538	-0.606940	-0.286787	1.045515	-0.562300	-0.184328	0.760286	-0.374664	-0.171767	0.701134	-0.376607	-0.107933	0.711068	-0.374737	-0.111927	0.772316	-0.372777	-0.154304	0.484903	-0.394479	-0.147526	0.464676	-0.513350	-0.240029	0.313529	-0.378308	-0.261883	0.279085	-0.383716	-0.192057	0.289553	-0.385922	-0.205905	0.252984	-0.395560	-0.314616	0.114697	-0.405591	-0.281507	0.116045	-0.487114	-0.369342	0.107968	-0.453965	-0.224187	0.034954	-0.373293	-0.170959	0.044877	-0.440410	-0.144856	0.035112	-0.440569	-0.181484	0.763155	-0.752810	-0.167120	0.703268	-0.754224	-0.103027	0.712454	-0.760578	-0.109924	0.772117	-0.760538	-0.128351	0.504278	-0.747210	-0.119014	0.488940	-0.629886	-0.247919	0.296665	-0.760022	-0.264639	0.260812	-0.754217	-0.208058	0.238479	-0.750649	-0.197188	0.278271	-0.761673	-0.304108	0.127049	-0.749930	-0.279657	0.126936	-0.666993	-0.362846	0.116397	-0.697181	-0.216960	0.034027	-0.773334	-0.168309	0.041889	-0.698207	-0.144390	0.033764	-0.704328	
6	0.0300	-0.268217	1.506376	-0.572183	-0.186217	1.479676	-0.766855	-0.178257	1.481094	-0.369213	-0.121580	1.441241	-0.568265	-0.104399	1.005939	-0.441270	-0.099532	1.011861	-0.689091	-0.184751	1.058309	-0.402436	-0.183975	1.054656	-0.724633	-0.284021	1.043278	-0.513756	-0.282874	1.040341	-0.606993	-0.287408	1.040262	-0.562450	-0.184330	0.755372	-0.374404	-0.171373	0.696305	-0.376320	-0.107610	0.706698	-0.374522	-0.112013	0.767902	-0.372624	-0.153036	0.480369	-0.394386	-0.146208	0.460058	-0.512968	-0.240161	0.309871	-0.378115	-0.262407	0.275583	-0.383682	-0.192488	0.285579	-0.385805	-0.206623	0.249125	-0.395390	-0.316261	0.111929	-0.405585	-0.283619	0.113136	-0.487289	-0.371360	0.104654	-0.453622	-0.224851	0.034200	-0.372519	-0.171642	0.044757	-0.440511	-0.145365	0.035006	-0.440614	-0.181460	0.757851	-0.753134	-0.166850	0.698044	-0.754423	-0.102795	0.707479	-0.760841	-0.109945	0.767100	-0.760929	-0.126704	0.499368	-0.746965	-0.117896	0.484034	-0.629779	-0.247685	0.292750	-0.760464	-0.264813	0.257129	-0.754699	-0.208484	0.234246	-0.750473	-0.197120	0.273850	-0.761508	-0.306006	0.124366	-0.750148	-0.281946	0.124102	-0.666981	-0.365134	0.113273	-0.697982	-0.217681	0.032800	-0.774689	-0.168826	0.041775	-0.698561	-0.144629	0.033596	-0.704328	
7	0.0350	-0.268222	1.501723	-0.571882	-0.185842	1.474881	-0.766881	-0.177753	1.476069	-0.368962	-0.121215	1.436134	-0.568187	-0.105010	1.000941	-0.441171	-0.099856	1.006743	-0.689189	-0.185593	1.053151	-0.402325	-0.184468	1.049473	-0.724892	-0.284858	1.038159	-0.514067	-0.283548	1.035059	-0.607105	-0.288056	1.034934	-0.562647	-0.184367	0.750425	-0.374130	-0.170998	0.691439	-0.375999	-0.107298	0.702295	-0.374215	-0.112148	0.763444	-0.372338	-0.151782	0.475837	-0.394342	-0.144857	0.455484	-0.512623	-0.239821	0.306365	-0.377816	-0.262674	0.272059	-0.383745	-0.192639	0.281628	-0.385809	-0.207100	0.245276	-0.395347	-0.317674	0.109162	-0.405790	-0.285391	0.110195	-0.487662	-0.373103	0.101255	-0.453616	-0.225347	0.033602	-0.371903	-0.172134	0.044651	-0.440653	-0.145697	0.034937	-0.440747	-0.181496	0.752349	-0.753427	-0.166613	0.692639	-0.754619	-0.102624	0.702347	-0.761229	-0.110045	0.761926	-0.761436	-0.125037	0.494370	-0.746736	-0.116670	0.479001	-0.629786	-0.247513	0.289007	-0.760863	-0.265089	0.253627	-0.755165	-0.209040	0.230143	-0.750326	-0.197152	0.269545	-0.761340	-0.307866	0.121876	-0.750409	-0.284265	0.121411	-0.667003	-0.367399	0.110374	-0.698904	-0.218441	0.031832	-0.775947	-0.169528	0.041771	-0.698940	-0.145030	0.033482	-0.704499	
8	0.0400	-0.268163	1.497156	-0.571543	-0.185452	1.470053	-0.766940	-0.177241	1.470974	-0.368682	-0.120786	1.431040	-0.568106	-0.105613	0.995801	-0.441068	-0.100166	1.001445	-0.689359	-0.186531	1.047850	-0.402138	-0.184944	1.044099	-0.725209	-0.285754	1.033001	-0.514435	-0.284268	1.029717	-0.607286	-0.288792	1.029591	-0.562912	-0.184433	0.745520	-0.373851	-0.170651	0.686618	-0.375664	-0.107016	0.697951	-0.373846	-0.112325	0.759038	-0.371962	-0.150561	0.471367	-0.394388	-0.143503	0.451036	-0.512339	-0.239282	0.302831	-0.377687	-0.262662	0.268531	-0.383941	-0.192484	0.277708	-0.386015	-0.207310	0.241439	-0.395523	-0.318875	0.106394	-0.406278	-0.286760	0.107281	-0.488318	-0.374555	0.097844	-0.454049	-0.225725	0.033126	-0.371463	-0.172468	0.044565	-0.440796	-0.145863	0.034872	-0.440854	-0.181585	0.746711	-0.753685	-0.166385	0.687113	-0.754801	-0.102484	0.697131	-0.761701	-0.110225	0.756665	-0.762011	-0.123415	0.489367	-0.746531	-0.115322	0.473910	-0.629925	-0.247307	0.285452	-0.761255	-0.265348	0.250305	-0.755621	-0.209589	0.226215	-0.750214	-0.197184	0.265418	-0.761187	-0.309534	0.119481	-0.750697	-0.286443	0.118829	-0.667037	-0.369536	0.107589	-0.699874	-0.219152	0.031005	-0.777034	-0.170291	0.041739	-0.699228	-0.145531	0.033389	-0.704692	
